<svg data-v-fde0c5aa="" xmlns="http://www.w3.org/2000/svg" viewBox="0 0 300 300" class="iconLeftSlogan"><!----><defs data-v-fde0c5aa=""><!----></defs><rect data-v-fde0c5aa="" fill="#EFFBEE" x="0" y="0" width="300px" height="300px" class="logo-background-square"></rect><defs data-v-fde0c5aa=""><!----></defs><g data-v-fde0c5aa="" id="b569f743-4765-4825-8b5f-f8180ea5304c" fill="#1F321D" transform="matrix(2.7629486090367052,0,0,2.7629486090367052,110.08241269947446,114.29076366720501)"><path d="M3.04 6.41L3.04 6.41Q2.86 6.41 2.73 6.27L2.73 6.27L2.73 6.27Q2.60 6.13 2.60 5.92L2.60 5.92L2.60 5.92Q2.60 5.63 2.83 5.36L2.83 5.36L2.83 5.36Q3.07 5.08 3.35 5.08L3.35 5.08L3.35 5.08Q3.56 5.08 3.70 5.24L3.70 5.24L3.70 5.24Q3.84 5.39 3.84 5.60L3.84 5.60L3.84 5.60Q3.84 5.88 3.58 6.15L3.58 6.15L3.58 6.15Q3.33 6.41 3.04 6.41L3.04 6.41ZM1.81 14.15L1.81 14.15Q1.46 14.15 1.20 13.94L1.20 13.94L1.20 13.94Q0.94 13.72 0.94 13.29L0.94 13.29L0.94 13.29Q0.94 12.92 1.11 12.39L1.11 12.39L1.11 12.39Q1.27 11.86 1.61 10.95L1.61 10.95L1.61 10.95Q1.65 10.82 1.83 10.34L1.83 10.34L1.83 10.34Q2.00 9.86 2.09 9.54L2.09 9.54L2.09 9.54Q2.17 9.23 2.17 9.04L2.17 9.04L2.17 9.04Q2.17 8.88 2.10 8.76L2.10 8.76L2.10 8.76Q2.03 8.65 1.89 8.65L1.89 8.65L1.89 8.65Q1.58 8.65 1.23 9.11L1.23 9.11L1.23 9.11Q0.88 9.58 0.57 10.35L0.57 10.35L0.41 10.30L0.41 10.30Q0.83 9.35 1.26 8.79L1.26 8.79L1.26 8.79Q1.69 8.23 2.30 8.23L2.30 8.23L2.30 8.23Q2.66 8.23 2.88 8.44L2.88 8.44L2.88 8.44Q3.11 8.64 3.11 9.04L3.11 9.04L3.11 9.04Q3.11 9.39 2.95 9.92L2.95 9.92L2.95 9.92Q2.79 10.44 2.49 11.23L2.49 11.23L2.49 11.23Q2.18 12.07 2.04 12.51L2.04 12.51L2.04 12.51Q1.90 12.95 1.90 13.26L1.90 13.26L1.90 13.26Q1.90 13.71 2.21 13.71L2.21 13.71L2.21 13.71Q2.53 13.71 2.87 13.24L2.87 13.24L2.87 13.24Q3.21 12.77 3.51 12.03L3.51 12.03L3.67 12.07L3.67 12.07Q3.26 13.05 2.84 13.60L2.84 13.60L2.84 13.60Q2.42 14.15 1.81 14.15L1.81 14.15ZM7.42 4.75L5.56 13.03L5.56 13.03Q5.52 13.20 5.52 13.31L5.52 13.31L5.52 13.31Q5.52 13.71 5.87 13.71L5.87 13.71L5.87 13.71Q6.47 13.71 7.17 12.03L7.17 12.03L7.32 12.07L7.32 12.07Q6.89 13.06 6.48 13.61L6.48 13.61L6.48 13.61Q6.08 14.15 5.46 14.15L5.46 14.15L5.46 14.15Q5.11 14.15 4.86 13.97L4.86 13.97L4.86 13.97Q4.61 13.78 4.61 13.34L4.61 13.34L4.61 13.34Q4.61 13.19 4.65 12.98L4.65 12.98L6.43 5.19L6.43 5.19Q6.44 5.14 6.44 5.05L6.44 5.05L6.44 5.05Q6.44 4.80 6.24 4.75L6.24 4.75L6.24 4.75Q6.03 4.70 5.66 4.70L5.66 4.70L5.66 4.70Q5.47 4.70 5.47 4.56L5.47 4.56L5.47 4.56Q5.47 4.48 5.52 4.45L5.52 4.45L5.52 4.45Q5.56 4.41 5.66 4.41L5.66 4.41L7.20 4.41L7.20 4.41Q7.43 4.41 7.43 4.63L7.43 4.63L7.43 4.63Q7.43 4.70 7.42 4.75L7.42 4.75ZM10.99 4.75L9.13 13.03L9.13 13.03Q9.09 13.20 9.09 13.31L9.09 13.31L9.09 13.31Q9.09 13.71 9.44 13.71L9.44 13.71L9.44 13.71Q10.04 13.71 10.74 12.03L10.74 12.03L10.89 12.07L10.89 12.07Q10.46 13.06 10.05 13.61L10.05 13.61L10.05 13.61Q9.65 14.15 9.03 14.15L9.03 14.15L9.03 14.15Q8.68 14.15 8.43 13.97L8.43 13.97L8.43 13.97Q8.18 13.78 8.18 13.34L8.18 13.34L8.18 13.34Q8.18 13.19 8.22 12.98L8.22 12.98L10.00 5.19L10.00 5.19Q10.01 5.14 10.01 5.05L10.01 5.05L10.01 5.05Q10.01 4.80 9.81 4.75L9.81 4.75L9.81 4.75Q9.60 4.70 9.23 4.70L9.23 4.70L9.23 4.70Q9.04 4.70 9.04 4.56L9.04 4.56L9.04 4.56Q9.04 4.48 9.09 4.45L9.09 4.45L9.09 4.45Q9.13 4.41 9.23 4.41L9.23 4.41L10.77 4.41L10.77 4.41Q11.00 4.41 11.00 4.63L11.00 4.63L11.00 4.63Q11.00 4.70 10.99 4.75L10.99 4.75ZM13.20 14.20L13.20 14.20Q12.82 14.20 12.43 14.01L12.43 14.01L12.43 14.01Q12.04 13.82 11.77 13.40L11.77 13.40L11.77 13.40Q11.49 12.98 11.49 12.31L11.49 12.31L11.49 12.31Q11.49 11.45 11.92 10.49L11.92 10.49L11.92 10.49Q12.35 9.53 13.04 8.88L13.04 8.88L13.04 8.88Q13.73 8.23 14.48 8.23L14.48 8.23L14.48 8.23Q14.87 8.23 15.19 8.45L15.19 8.45L15.19 8.45Q15.51 8.67 15.69 8.95L15.69 8.95L15.69 8.95Q15.74 9.00 15.79 9.00L15.79 9.00L15.79 9.00Q15.89 9.00 15.92 8.90L15.92 8.90L16.00 8.61L16.00 8.61Q16.04 8.43 16.23 8.43L16.23 8.43L16.67 8.43L16.67 8.43Q16.90 8.43 16.86 8.67L16.86 8.67L16.86 8.67Q15.82 12.84 15.82 13.34L15.82 13.34L15.82 13.34Q15.82 13.51 15.91 13.61L15.91 13.61L15.91 13.61Q16.00 13.71 16.14 13.71L16.14 13.71L16.14 13.71Q16.44 13.71 16.77 13.25L16.77 13.25L16.77 13.25Q17.11 12.80 17.43 12.03L17.43 12.03L17.58 12.07L17.58 12.07Q17.14 13.13 16.72 13.64L16.72 13.64L16.72 13.64Q16.31 14.15 15.65 14.15L15.65 14.15L15.65 14.15Q15.25 14.15 15.11 13.96L15.11 13.96L15.11 13.96Q14.97 13.76 14.88 13.37L14.88 13.37L14.88 13.37Q14.87 13.22 14.77 13.33L14.77 13.33L14.77 13.33Q14.35 13.75 13.99 13.97L13.99 13.97L13.99 13.97Q13.64 14.20 13.20 14.20L13.20 14.20ZM13.30 13.83L13.30 13.83Q13.97 13.83 14.39 13.38L14.39 13.38L14.39 13.38Q14.81 12.94 15.09 12.13L15.09 12.13L15.09 12.13Q15.37 11.33 15.68 9.90L15.68 9.90L15.68 9.90Q15.68 9.41 15.45 8.97L15.45 8.97L15.45 8.97Q15.22 8.54 14.73 8.54L14.73 8.54L14.73 8.54Q14.07 8.54 13.55 9.22L13.55 9.22L13.55 9.22Q13.02 9.90 12.73 10.89L12.73 10.89L12.73 10.89Q12.43 11.87 12.43 12.70L12.43 12.70L12.43 12.70Q12.43 13.26 12.62 13.55L12.62 13.55L12.62 13.55Q12.81 13.83 13.30 13.83L13.30 13.83ZM24.26 6.41L24.26 6.41Q24.08 6.41 23.95 6.27L23.95 6.27L23.95 6.27Q23.83 6.13 23.83 5.92L23.83 5.92L23.83 5.92Q23.83 5.63 24.06 5.36L24.06 5.36L24.06 5.36Q24.29 5.08 24.57 5.08L24.57 5.08L24.57 5.08Q24.78 5.08 24.92 5.24L24.92 5.24L24.92 5.24Q25.06 5.39 25.06 5.60L25.06 5.60L25.06 5.60Q25.06 5.88 24.81 6.15L24.81 6.15L24.81 6.15Q24.56 6.41 24.26 6.41L24.26 6.41ZM23.03 14.15L23.03 14.15Q22.68 14.15 22.42 13.94L22.42 13.94L22.42 13.94Q22.16 13.72 22.16 13.29L22.16 13.29L22.16 13.29Q22.16 12.92 22.33 12.39L22.33 12.39L22.33 12.39Q22.50 11.86 22.83 10.95L22.83 10.95L22.83 10.95Q22.88 10.82 23.05 10.34L23.05 10.34L23.05 10.34Q23.23 9.86 23.31 9.54L23.31 9.54L23.31 9.54Q23.39 9.23 23.39 9.04L23.39 9.04L23.39 9.04Q23.39 8.88 23.32 8.76L23.32 8.76L23.32 8.76Q23.25 8.65 23.11 8.65L23.11 8.65L23.11 8.65Q22.81 8.65 22.46 9.11L22.46 9.11L22.46 9.11Q22.11 9.58 21.80 10.35L21.80 10.35L21.63 10.30L21.63 10.30Q22.05 9.35 22.48 8.79L22.48 8.79L22.48 8.79Q22.92 8.23 23.52 8.23L23.52 8.23L23.52 8.23Q23.88 8.23 24.11 8.44L24.11 8.44L24.11 8.44Q24.33 8.64 24.33 9.04L24.33 9.04L24.33 9.04Q24.33 9.39 24.17 9.92L24.17 9.92L24.17 9.92Q24.01 10.44 23.72 11.23L23.72 11.23L23.72 11.23Q23.41 12.07 23.27 12.51L23.27 12.51L23.27 12.51Q23.13 12.95 23.13 13.26L23.13 13.26L23.13 13.26Q23.13 13.71 23.44 13.71L23.44 13.71L23.44 13.71Q23.76 13.71 24.09 13.24L24.09 13.24L24.09 13.24Q24.43 12.77 24.74 12.03L24.74 12.03L24.89 12.07L24.89 12.07Q24.49 13.05 24.07 13.60L24.07 13.60L24.07 13.60Q23.65 14.15 23.03 14.15L23.03 14.15ZM27.05 14.14L27.05 14.14Q26.45 14.14 25.96 13.83L25.96 13.83L25.96 13.83Q25.47 13.51 25.47 13.02L25.47 13.02L25.47 13.02Q25.47 12.80 25.58 12.68L25.58 12.68L25.58 12.68Q25.69 12.56 25.87 12.56L25.87 12.56L25.87 12.56Q26.04 12.56 26.16 12.65L26.16 12.65L26.16 12.65Q26.28 12.74 26.28 12.92L26.28 12.92L26.28 12.92Q26.28 13.02 26.21 13.17L26.21 13.17L26.21 13.17Q26.15 13.33 26.15 13.41L26.15 13.41L26.15 13.41Q26.15 13.64 26.42 13.74L26.42 13.74L26.42 13.74Q26.70 13.85 27.05 13.85L27.05 13.85L27.05 13.85Q27.66 13.85 28.17 13.51L28.17 13.51L28.17 13.51Q28.67 13.17 28.67 12.54L28.67 12.54L28.67 12.54Q28.67 12.07 28.38 11.85L28.38 11.85L28.38 11.85Q28.10 11.63 27.50 11.42L27.50 11.42L27.50 11.42Q27.08 11.28 26.82 11.16L26.82 11.16L26.82 11.16Q26.56 11.03 26.38 10.78L26.38 10.78L26.38 10.78Q26.21 10.53 26.21 10.14L26.21 10.14L26.21 10.14Q26.21 9.62 26.50 9.18L26.50 9.18L26.50 9.18Q26.80 8.75 27.26 8.49L27.26 8.49L27.26 8.49Q27.72 8.23 28.21 8.23L28.21 8.23L28.21 8.23Q28.77 8.23 29.22 8.55L29.22 8.55L29.22 8.55Q29.68 8.88 29.68 9.35L29.68 9.35L29.68 9.35Q29.68 9.59 29.57 9.71L29.57 9.71L29.57 9.71Q29.46 9.83 29.27 9.83L29.27 9.83L29.27 9.83Q29.11 9.83 28.99 9.74L28.99 9.74L28.99 9.74Q28.87 9.66 28.87 9.49L28.87 9.49L28.87 9.49Q28.87 9.39 28.93 9.24L28.93 9.24L28.93 9.24Q28.99 9.09 28.99 9.00L28.99 9.00L28.99 9.00Q28.99 8.76 28.74 8.63L28.74 8.63L28.74 8.63Q28.49 8.50 28.14 8.50L28.14 8.50L28.14 8.50Q27.58 8.50 27.23 8.84L27.23 8.84L27.23 8.84Q26.88 9.18 26.88 9.62L26.88 9.62L26.88 9.62Q26.88 10.00 27.14 10.17L27.14 10.17L27.14 10.17Q27.40 10.35 27.93 10.53L27.93 10.53L27.93 10.53Q28.38 10.68 28.66 10.82L28.66 10.82L28.66 10.82Q28.94 10.96 29.13 11.25L29.13 11.25L29.13 11.25Q29.33 11.54 29.33 12.00L29.33 12.00L29.33 12.00Q29.33 12.61 28.98 13.10L28.98 13.10L28.98 13.10Q28.63 13.59 28.11 13.87L28.11 13.87L28.11 13.87Q27.58 14.14 27.05 14.14L27.05 14.14ZM33.45 4.75L31.58 13.03L31.58 13.03Q31.54 13.20 31.54 13.31L31.54 13.31L31.54 13.31Q31.54 13.71 31.89 13.71L31.89 13.71L31.89 13.71Q32.49 13.71 33.19 12.03L33.19 12.03L33.35 12.07L33.35 12.07Q32.91 13.06 32.51 13.61L32.51 13.61L32.51 13.61Q32.10 14.15 31.49 14.15L31.49 14.15L31.49 14.15Q31.14 14.15 30.88 13.97L30.88 13.97L30.88 13.97Q30.63 13.78 30.63 13.34L30.63 13.34L30.63 13.34Q30.63 13.19 30.67 12.98L30.67 12.98L32.45 5.19L32.45 5.19Q32.47 5.14 32.47 5.05L32.47 5.05L32.47 5.05Q32.47 4.80 32.26 4.75L32.26 4.75L32.26 4.75Q32.06 4.70 31.68 4.70L31.68 4.70L31.68 4.70Q31.50 4.70 31.50 4.56L31.50 4.56L31.50 4.56Q31.50 4.48 31.54 4.45L31.54 4.45L31.54 4.45Q31.58 4.41 31.68 4.41L31.68 4.41L33.22 4.41L33.22 4.41Q33.46 4.41 33.46 4.63L33.46 4.63L33.46 4.63Q33.46 4.70 33.45 4.75L33.45 4.75ZM35.66 14.20L35.66 14.20Q35.28 14.20 34.89 14.01L34.89 14.01L34.89 14.01Q34.50 13.82 34.22 13.40L34.22 13.40L34.22 13.40Q33.95 12.98 33.95 12.31L33.95 12.31L33.95 12.31Q33.95 11.45 34.38 10.49L34.38 10.49L34.38 10.49Q34.80 9.53 35.50 8.88L35.50 8.88L35.50 8.88Q36.19 8.23 36.93 8.23L36.93 8.23L36.93 8.23Q37.32 8.23 37.65 8.45L37.65 8.45L37.65 8.45Q37.97 8.67 38.15 8.95L38.15 8.95L38.15 8.95Q38.19 9.00 38.25 9.00L38.25 9.00L38.25 9.00Q38.35 9.00 38.37 8.90L38.37 8.90L38.46 8.61L38.46 8.61Q38.50 8.43 38.68 8.43L38.68 8.43L39.13 8.43L39.13 8.43Q39.35 8.43 39.31 8.67L39.31 8.67L39.31 8.67Q38.28 12.84 38.28 13.34L38.28 13.34L38.28 13.34Q38.28 13.51 38.37 13.61L38.37 13.61L38.37 13.61Q38.46 13.71 38.60 13.71L38.60 13.71L38.60 13.71Q38.89 13.71 39.23 13.25L39.23 13.25L39.23 13.25Q39.56 12.80 39.89 12.03L39.89 12.03L40.04 12.07L40.04 12.07Q39.59 13.13 39.18 13.64L39.18 13.64L39.18 13.64Q38.77 14.15 38.11 14.15L38.11 14.15L38.11 14.15Q37.70 14.15 37.56 13.96L37.56 13.96L37.56 13.96Q37.42 13.76 37.34 13.37L37.34 13.37L37.34 13.37Q37.32 13.22 37.23 13.33L37.23 13.33L37.23 13.33Q36.81 13.75 36.45 13.97L36.45 13.97L36.45 13.97Q36.09 14.20 35.66 14.20L35.66 14.20ZM35.76 13.83L35.76 13.83Q36.43 13.83 36.85 13.38L36.85 13.38L36.85 13.38Q37.27 12.94 37.55 12.13L37.55 12.13L37.55 12.13Q37.83 11.33 38.14 9.90L38.14 9.90L38.14 9.90Q38.14 9.41 37.91 8.97L37.91 8.97L37.91 8.97Q37.67 8.54 37.18 8.54L37.18 8.54L37.18 8.54Q36.53 8.54 36.00 9.22L36.00 9.22L36.00 9.22Q35.48 9.90 35.18 10.89L35.18 10.89L35.18 10.89Q34.89 11.87 34.89 12.70L34.89 12.70L34.89 12.70Q34.89 13.26 35.08 13.55L35.08 13.55L35.08 13.55Q35.27 13.83 35.76 13.83L35.76 13.83ZM45.37 14.15L45.37 14.15Q45.01 14.15 44.77 13.94L44.77 13.94L44.77 13.94Q44.52 13.72 44.52 13.19L44.52 13.19L44.52 13.19Q44.52 12.78 44.64 12.31L44.64 12.31L44.64 12.31Q44.76 11.84 45.01 11.09L45.01 11.09L45.01 11.09Q45.21 10.49 45.31 10.10L45.31 10.10L45.31 10.10Q45.42 9.72 45.42 9.44L45.42 9.44L45.42 9.44Q45.42 8.83 44.84 8.83L44.84 8.83L44.84 8.83Q44.28 8.83 43.90 9.35L43.90 9.35L43.90 9.35Q43.51 9.87 43.25 10.67L43.25 10.67L43.25 10.67Q42.99 11.47 42.62 12.98L42.62 12.98L42.41 13.83L42.41 13.83Q42.36 14.01 42.18 14.01L42.18 14.01L41.62 14.01L41.62 14.01Q41.51 14.01 41.46 13.94L41.46 13.94L41.46 13.94Q41.41 13.87 41.44 13.78L41.44 13.78L41.44 13.78Q41.54 13.36 42 11.51L42 11.51L42 11.51Q42.25 10.54 42.38 9.98L42.38 9.98L42.38 9.98Q42.50 9.41 42.50 9.09L42.50 9.09L42.50 9.09Q42.50 8.64 42.22 8.64L42.22 8.64L42.22 8.64Q41.93 8.64 41.57 9.11L41.57 9.11L41.57 9.11Q41.20 9.58 40.91 10.32L40.91 10.32L40.74 10.28L40.74 10.28Q41.15 9.34 41.57 8.79L41.57 8.79L41.57 8.79Q42 8.23 42.63 8.23L42.63 8.23L42.63 8.23Q43.09 8.23 43.25 8.45L43.25 8.45L43.25 8.45Q43.41 8.67 43.41 9.00L43.41 9.00L43.40 9.34L43.40 9.34Q43.40 9.46 43.44 9.46L43.44 9.46L43.44 9.46Q43.47 9.46 43.53 9.41L43.53 9.41L43.53 9.41Q43.58 9.34 43.83 9.02L43.83 9.02L43.83 9.02Q44.07 8.71 44.50 8.47L44.50 8.47L44.50 8.47Q44.93 8.23 45.47 8.23L45.47 8.23L45.47 8.23Q46.45 8.23 46.45 9.10L46.45 9.10L46.45 9.10Q46.45 9.44 46.34 9.86L46.34 9.86L46.34 9.86Q46.23 10.29 46.02 10.95L46.02 10.95L46.02 10.95Q45.78 11.68 45.65 12.19L45.65 12.19L45.65 12.19Q45.51 12.71 45.51 13.16L45.51 13.16L45.51 13.16Q45.51 13.45 45.58 13.58L45.58 13.58L45.58 13.58Q45.65 13.71 45.81 13.71L45.81 13.71L45.81 13.71Q46.40 13.71 47.10 12.03L47.10 12.03L47.25 12.07L47.25 12.07Q46.82 13.09 46.40 13.62L46.40 13.62L46.40 13.62Q45.99 14.15 45.37 14.15L45.37 14.15ZM49.66 14.20L49.66 14.20Q49.28 14.20 48.89 14.01L48.89 14.01L48.89 14.01Q48.50 13.82 48.22 13.40L48.22 13.40L48.22 13.40Q47.95 12.98 47.95 12.31L47.95 12.31L47.95 12.31Q47.95 11.45 48.38 10.49L48.38 10.49L48.38 10.49Q48.80 9.53 49.50 8.88L49.50 8.88L49.50 8.88Q50.19 8.23 50.93 8.23L50.93 8.23L50.93 8.23Q51.32 8.23 51.65 8.46L51.65 8.46L51.65 8.46Q51.98 8.69 52.18 8.99L52.18 8.99L52.23 9.02L52.23 9.02Q52.36 9.02 52.37 8.90L52.37 8.90L52.67 7.77L52.81 7.13L52.81 7.13Q53.17 5.49 53.26 5.19L53.26 5.19L53.26 5.19Q53.27 5.15 53.27 5.07L53.27 5.07L53.27 5.07Q53.27 4.82 53.07 4.76L53.07 4.76L53.07 4.76Q52.88 4.70 52.49 4.70L52.49 4.70L52.49 4.70Q52.29 4.70 52.29 4.56L52.29 4.56L52.29 4.56Q52.29 4.48 52.33 4.45L52.33 4.45L52.33 4.45Q52.37 4.41 52.49 4.41L52.49 4.41L54.03 4.41L54.03 4.41Q54.26 4.41 54.26 4.63L54.26 4.63L54.26 4.63Q54.26 4.70 54.25 4.75L54.25 4.75L53.62 7.41L53.28 8.82L53.28 8.82Q52.28 12.82 52.28 13.34L52.28 13.34L52.28 13.34Q52.28 13.51 52.37 13.61L52.37 13.61L52.37 13.61Q52.46 13.71 52.60 13.71L52.60 13.71L52.60 13.71Q52.89 13.71 53.23 13.25L53.23 13.25L53.23 13.25Q53.56 12.80 53.89 12.03L53.89 12.03L54.04 12.07L54.04 12.07Q53.59 13.13 53.18 13.64L53.18 13.64L53.18 13.64Q52.77 14.15 52.11 14.15L52.11 14.15L52.11 14.15Q51.70 14.15 51.56 13.96L51.56 13.96L51.56 13.96Q51.42 13.76 51.34 13.37L51.34 13.37L51.34 13.37Q51.32 13.22 51.23 13.33L51.23 13.33L51.23 13.33Q50.81 13.75 50.45 13.97L50.45 13.97L50.45 13.97Q50.09 14.20 49.66 14.20L49.66 14.20ZM49.76 13.83L49.76 13.83Q50.43 13.83 50.85 13.38L50.85 13.38L50.85 13.38Q51.27 12.94 51.55 12.13L51.55 12.13L51.55 12.13Q51.83 11.33 52.14 9.90L52.14 9.90L52.14 9.90Q52.14 9.41 51.91 8.97L51.91 8.97L51.91 8.97Q51.67 8.54 51.18 8.54L51.18 8.54L51.18 8.54Q50.53 8.54 50.00 9.22L50.00 9.22L50.00 9.22Q49.48 9.90 49.18 10.89L49.18 10.89L49.18 10.89Q48.89 11.87 48.89 12.70L48.89 12.70L48.89 12.70Q48.89 13.26 49.08 13.55L49.08 13.55L49.08 13.55Q49.27 13.83 49.76 13.83L49.76 13.83Z"></path></g><defs data-v-fde0c5aa=""><linearGradient data-v-fde0c5aa="" gradientTransform="rotate(25)" id="e281fe97-70e2-4626-ae57-cd1456f5e1df" x1="0%" y1="0%" x2="100%" y2="0%"><stop data-v-fde0c5aa="" offset="0%" stop-color="#00EEE1" stop-opacity="1"></stop><stop data-v-fde0c5aa="" offset="100%" stop-color="#FFD233" stop-opacity="1"></stop></linearGradient></defs><g data-v-fde0c5aa="" id="04b22e27-744a-4ced-bdab-d12308e72bdf" stroke="none" fill="url(#e281fe97-70e2-4626-ae57-cd1456f5e1df)" transform="matrix(0.6951239046393471,0,0,0.6951239046393471,33.383800975770704,115.46523755860683)"><path d="M63.163 5.283c1.626.171 3.202.587 4.796.926 1.42.301 2.788.76 4.155 1.215 1.193.397 2.358.883 3.509 1.4.858.386 1.701.802 2.525 1.244.855.459 1.704.939 2.525 1.467.79.509 1.585 1.01 2.345 1.56a42.842 42.842 0 0 1 3.364 2.709c.077.069.211.106.19.253-.477-.14-.867-.448-1.245-.74-.585-.451-1.243-.761-1.875-1.122-.934-.534-1.897-1.026-2.906-1.388-1.054-.378-2.091-.806-3.19-1.068-1.101-.263-2.195-.563-3.296-.829l-.732-.245c-.104-.086-.218-.146-.359-.135-.007-.016-.019-.02-.035-.012-.395-.157-.785-.328-1.209-.397-.011-.016-.025-.021-.043-.013a.736.736 0 0 0-.373-.115l-.13-.015-.559-.135c-.012-.017-.027-.021-.046-.013-.402-.236-.871-.244-1.306-.368-.775-.222-1.561-.426-2.378-.44l-.03-.013-.033.004c-.052-.021-.103-.053-.157-.061-.984-.159-1.965-.339-2.953-.467-1.033-.133-2.068-.261-3.112-.277-2.304-.151-4.608-.123-6.912.013-.021.001-.041.018-.062.027-.324-.003-.648-.009-.964.076l-.136.007c-.334-.033-.662.037-.989.075-.758.089-1.523.141-2.267.327l-.03-.004-.027.014a2.215 2.215 0 0 0-.769.129l-.269.032c-.039-.014-.066-.006-.08.034l.005-.002c-.484.068-.976.084-1.45.216l-.033-.002-.029.017c-.191.019-.383.033-.559.123l-.131.018c-.322.08-.662.096-.961.263-.819.2-1.655.347-2.453.611-1.457.482-2.927.925-4.355 1.505-.966.392-1.925.806-2.869 1.24-.904.415-1.792.875-2.668 1.356a47.99 47.99 0 0 0-3.961 2.41 47.985 47.985 0 0 0-3.233 2.387c-.485.394-.963.809-1.454 1.199-.485.385-.937.831-1.399 1.253-.845.772-1.644 1.591-2.434 2.413-.406.422-.807.869-1.188 1.325-.439.525-.889 1.046-1.325 1.574-.627.759-1.195 1.566-1.775 2.363a42.278 42.278 0 0 0-2.137 3.238 51.148 51.148 0 0 0-2.192 4.086c-.446.931-.794 1.905-1.272 2.816-.299.57-.339 1.226-.709 1.805a48.364 48.364 0 0 1 1.019-3.628 53.637 53.637 0 0 1 1.568-4.113c.54-1.279 1.134-2.538 1.828-3.74.446-.772.878-1.553 1.354-2.31a57.9 57.9 0 0 1 1.508-2.299 43.8 43.8 0 0 1 3.713-4.638 71.07 71.07 0 0 1 2.152-2.207c.913-.91 1.883-1.752 2.866-2.575.486-.407.992-.807 1.504-1.191.714-.537 1.453-1.04 2.174-1.566.683-.498 1.442-.889 2.154-1.348a24.503 24.503 0 0 1 2.581-1.436c.779-.378 1.525-.832 2.36-1.113.625-.21 1.203-.566 1.825-.804 1.822-.698 3.671-1.323 5.561-1.808a46.95 46.95 0 0 1 8.356-1.372c.347-.025.706.005 1.041-.129h6.214c.477.119.963.129 1.451.134.022.01.044.012.067.005.78.115 1.56.225 2.349.269z"></path><path d="M45.212 30.841c-1.029.819-1.928 1.766-2.744 2.793a16.098 16.098 0 0 0-2.288 3.895c-.788 1.913-1.05 3.903-1 5.962.04 1.673.383 3.274.843 4.872a27.149 27.149 0 0 0 1.406 3.769c.384.842.807 1.669 1.27 2.477.451.786.937 1.548 1.446 2.291.9 1.312 1.904 2.55 2.999 3.708a36.651 36.651 0 0 0 3.601 3.345c.562.453 1.13.899 1.714 1.318a39.053 39.053 0 0 0 2.781 1.828c1.191.709 2.42 1.36 3.686 1.926 1.718.769 3.489 1.403 5.289 1.955.24.073.496.095.744.141 2.978.857 6.027 1.112 9.11 1.062 1.473-.024 2.943.003 4.384.352.41.099.815.244 1.201.415.352.156.672.401.701.825.029.419-.246.691-.561.93-.794.603-1.708.903-2.663 1.144-2.322.586-4.677.709-7.054.584-1.794-.094-3.561-.382-5.331-.679-1.32-.222-2.59-.61-3.886-.913-1.325-.31-2.571-.847-3.874-1.213-.103-.029-.199-.117-.319-.052.019-.125-.059-.13-.155-.13.039.073.088.114.159.127.015.214.225.241.341.358.494.498 1.066.906 1.633 1.306.718.507 1.435 1.024 2.231 1.412.236.115.446.282.678.408a32.567 32.567 0 0 0 5.038 2.194c1.979.673 4.013 1.147 6.075 1.509 3.213.564 6.449.582 9.696.512 2.783-.06 5.514-.496 8.247-.958.794-.134 1.574-.324 2.359-.491.086-.018.169-.06.297.005-.357.154-.676.343-1.021.43-.838.212-1.61.618-2.445.82-1.448.35-2.843.884-4.318 1.154-1.16.212-2.296.578-3.466.749-2.455.358-4.906.756-7.39.892-1.944.106-3.887.104-5.831.059-2.442-.056-4.853-.401-7.263-.782-1.388-.22-2.737-.591-4.106-.883-1.331-.284-2.603-.745-3.887-1.162-1.382-.448-2.726-1.014-4.057-1.609a63.6 63.6 0 0 1-2.63-1.268c-.983-.496-1.932-1.06-2.917-1.555-1.028-.516-1.959-1.173-2.878-1.863a21.575 21.575 0 0 1-1.619-1.322 34.972 34.972 0 0 1-2.161-2.145 45.982 45.982 0 0 1-1.446-1.65 33.481 33.481 0 0 1-1.932-2.539c-.284-.415-.576-.825-.856-1.243-.335-.714-.867-1.31-1.21-2.02v-.003c-.033-.177-.171-.283-.28-.41v-.003l-.676-1.289c.151.637.203 1.295.511 1.879.383 1.103.762 2.205 1.215 3.286.368.879.844 1.702 1.198 2.584.106.263.259.509.404.755.576.976 1.119 1.975 1.748 2.916a43.49 43.49 0 0 0 2.255 3.113c.377.468.774.93 1.141 1.41.341.446.744.863 1.142 1.273.517.534.99 1.114 1.537 1.613.421.385.789.825 1.238 1.179.503.395.911.9 1.445 1.26.174.258.398.457.693.567.689.72 1.512 1.277 2.299 1.876.591.45 1.18.907 1.798 1.319.762.508 1.528 1.011 2.292 1.515.824.543 1.677 1.037 2.523 1.539a46.452 46.452 0 0 0 3.506 1.881c1.051.506 2.096 1.032 3.189 1.448.148.056.269.155.397.25.292.217.688.187 1.018.338.206.094.429.148.706.24-.173.103-.284.049-.396.027-1.5-.292-2.962-.722-4.429-1.144a59.468 59.468 0 0 1-3.91-1.299 55.082 55.082 0 0 1-3.446-1.378 79.046 79.046 0 0 1-2.774-1.276c-.924-.454-1.874-.867-2.74-1.437-.151-.1-.304-.212-.499-.218l-.138-.054.003.004-.071-.074.003.002c-.559-.408-1.176-.724-1.761-1.089-1.013-.631-2.005-1.297-3.005-1.949l.002.002c-.027-.068-.085-.095-.149-.114-.665-.488-1.343-.96-1.992-1.469-.62-.486-1.21-1.011-1.815-1.516-1.783-1.49-3.413-3.137-4.947-4.877-.46-.521-.885-1.079-1.33-1.614-.823-.987-1.548-2.044-2.258-3.106a29.223 29.223 0 0 1-1.113-1.774c-.545-.956-1.099-1.911-1.562-2.904-.459-.984-.918-1.971-1.323-2.984-.584-1.462-1.026-2.967-1.535-4.452-.069-.201-.101-.414-.163-.673-.499.703-.67 1.456-.739 2.24-.161 1.834.195 3.611.568 5.392.342 1.632.854 3.212 1.378 4.787.431 1.293.964 2.552 1.429 3.834.222.614.383 1.249.505 1.893.025.132.081.309-.067.374-.159.07-.265-.084-.36-.201-.792-.974-1.371-2.078-1.977-3.17-.915-1.648-1.693-3.362-2.462-5.077-.664-1.482-1.201-3.021-1.794-4.535.009-.041-.009-.063-.049-.07l-.002-.002c-.092-.705-.375-1.349-.633-2.001l-.089-.294-.035-.118c-.035-.317-.175-.602-.266-.902l-.014-.134c-.016-.101-.024-.203-.05-.301-.433-1.624-.829-3.255-.863-4.949v-1.18c-.035.238-.146.463-.109.704-.199 1.459-.34 2.923-.369 4.397-.067.117-.047.246-.048.37-.016 1.145-.053 2.29-.033 3.434.019 1.041.068 2.083.23 3.115.042.933.269 1.841.385 2.764.111.884.428 1.711.685 2.557.285.937.772 1.79 1.06 2.722.109.353.162.716.119 1.088-.031.272-.187.325-.413.221a2.16 2.16 0 0 1-.729-.565c-.848-.974-1.489-2.082-2.073-3.226-.768-1.503-1.377-3.071-1.921-4.666-.041-.121-.078-.24-.16-.34-.012-.338-.172-.637-.253-.957-.265-1.043-.561-2.078-.844-3.115l-.009-.071c-.032-.476-.087-.947-.258-1.397-.142-.873-.281-1.746-.428-2.618-.182-1.079-.272-2.166-.327-3.258a53.468 53.468 0 0 1 .069-6.758c.122-1.617.49-3.198.817-4.786.25-1.211.701-2.35 1.067-3.519.186-.596.539-1.138.78-1.719.475-1.147 1.066-2.231 1.657-3.32.388-.715.84-1.387 1.256-2.081.469-.783 1.035-1.509 1.565-2.255.391-.552.821-1.073 1.244-1.595.422-.521.864-1.034 1.314-1.536a44.458 44.458 0 0 1 2.295-2.398c.449-.431.914-.86 1.389-1.271a64.955 64.955 0 0 1 1.758-1.482c.809-.653 1.631-1.298 2.5-1.866.641-.419 1.28-.845 1.933-1.248a38.604 38.604 0 0 1 2.657-1.513 52.387 52.387 0 0 1 6.362-2.768c1.121-.392 2.221-.853 3.377-1.164.677-.182 1.371-.393 2.017-.711.217-.106.488-.101.734-.147.627-.09 1.22-.309 1.822-.494.016.009.028.005.037-.01a1.29 1.29 0 0 0 .489-.139l.13-.018c.331-.066.661-.137.979-.258l.129-.016a.58.58 0 0 0 .348-.055l.135-.013c.501-.037.974-.215 1.468-.291.043-.007.076-.076.114-.116.141.002.283.051.421-.013a.381.381 0 0 0 .273-.055h.002a12.26 12.26 0 0 0 1.52-.275l.068-.007 1.178-.13a.061.061 0 0 0 .065-.005c.362.008.717-.036 1.069-.121.015.012.028.011.038-.006a6.653 6.653 0 0 0 1.274-.132l.02.013.021-.011 2.239-.139 1.969-.015 2.417.135.068.004c.344.129.733.045 1.076.207-.043.132-.173.131-.233.211-1.092-.058-2.15.196-3.209.385-1.809.323-3.621.625-5.398 1.115-1.183.326-2.369.642-3.55.978-1.305.372-2.571.853-3.839 1.319a47.114 47.114 0 0 0-3.267 1.363c-.994.453-1.964.949-2.924 1.461-.835.445-1.654.927-2.459 1.435-.737.465-1.458.953-2.17 1.451-.955.668-1.856 1.409-2.736 2.177a33.635 33.635 0 0 0-2.321 2.24c-.403.427-.79.88-1.184 1.32-.418.467-.832.944-1.226 1.425-.433.529-.874 1.059-1.297 1.599a69.575 69.575 0 0 0-1.553 2.055 36.199 36.199 0 0 0-1.547 2.312c-.467.763-.924 1.535-1.316 2.333-.653 1.327-1.232 2.694-1.42 4.184-.069.548-.113 1.104.11 1.634.087.206.157.449.427.49.277.043.433-.159.539-.357.39-.726.857-1.41 1.158-2.184.078-.201.194-.389.304-.576.499-.849.914-1.743 1.399-2.601.422-.745.844-1.493 1.287-2.225a38.808 38.808 0 0 1 1.928-2.879c1.258-1.71 2.635-3.323 4.224-4.737a24.118 24.118 0 0 1 2.62-2.044 24.623 24.623 0 0 1 2.829-1.622c.778-.384 1.527-.836 2.357-1.116.346-.117.669-.301 1.003-.454 1.034-.472 2.106-.859 3.182-1.21 2.131-.696 4.308-1.218 6.564-1.313.126-.005.252-.001.423-.001-.115.171-.279.206-.414.242-.674.179-1.249.581-1.896.814-.823.297-1.563.762-2.357 1.119-.823.369-1.598.846-2.386 1.291-.858.484-1.73.951-2.553 1.49-.689.451-1.391.883-2.055 1.374-.626.463-1.263.912-1.875 1.393a43.52 43.52 0 0 0-1.864 1.568c-.447.393-.862.82-1.283 1.233a16.804 16.804 0 0 0-1.423 1.617c-.506.643-.948 1.323-1.41 1.992-.32.463-.541.98-.838 1.456-.469.749-.832 1.561-1.168 2.37-.928 2.235-1.623 4.539-1.715 6.983-.023.622.018 1.243.197 1.845.079.265.181.596.47.624.279.027.426-.296.528-.527.325-.733.64-1.473.915-2.227.454-1.24.98-2.45 1.527-3.649.442-.968.928-1.919 1.453-2.85 1.18-2.09 2.564-4.017 4.363-5.617a26.947 26.947 0 0 1 2.415-1.928c1.303-.917 2.649-1.771 4.095-2.458 1.239-.588 2.512-1.075 3.85-1.371.693-.153 1.408-.156 2.126-.126-.757.321-1.476.705-2.206 1.065-.923.455-1.811.974-2.665 1.56-.776.53-1.549 1.057-2.253 1.681z"></path></g><defs data-v-fde0c5aa=""><!----></defs><g data-v-fde0c5aa="" id="45ffddc1-f891-471e-a285-535eafd9ed52" fill="#1F321D" transform="matrix(0.7391563582060668,0,0,0.7391563582060668,111.03782408627983,160.84149572365786)"><path d="M2.91 13.93C3.21 13.93 3.49 13.86 3.77 13.75C4.03 13.64 4.26 13.48 4.44 13.29L4.26 12.98C4.21 12.94 4.19 12.92 4.14 12.92C4.12 12.92 4.06 12.94 4.00 12.99C3.95 13.05 3.88 13.09 3.79 13.15C3.71 13.20 3.60 13.26 3.47 13.31C3.35 13.37 3.22 13.38 3.05 13.38C2.91 13.38 2.77 13.36 2.66 13.31C2.55 13.27 2.45 13.20 2.37 13.12C2.28 13.03 2.21 12.92 2.16 12.78C2.10 12.64 2.09 12.49 2.09 12.29L2.09 7.57L4.28 7.57L4.28 7.07L2.09 7.07L2.09 4.41L1.76 4.41C1.71 4.41 1.68 4.44 1.65 4.47C1.62 4.49 1.60 4.54 1.60 4.58L1.43 7.07L0.24 7.15L0.24 7.41C0.24 7.46 0.25 7.49 0.28 7.52C0.31 7.55 0.36 7.57 0.42 7.57L1.41 7.57L1.41 12.33C1.41 12.88 1.54 13.27 1.81 13.54C2.07 13.80 2.44 13.93 2.91 13.93ZM15.65 6.73C15.16 6.73 14.71 6.83 14.32 7.00C13.93 7.17 13.61 7.41 13.34 7.71C13.08 8.02 12.87 8.39 12.73 8.81C12.59 9.23 12.50 9.69 12.50 10.19C12.50 10.78 12.59 11.31 12.74 11.77C12.89 12.24 13.10 12.61 13.38 12.94C13.66 13.26 14 13.50 14.39 13.66C14.78 13.83 15.22 13.90 15.69 13.90C15.96 13.90 16.23 13.89 16.48 13.83C16.73 13.78 16.98 13.71 17.21 13.62C17.43 13.54 17.64 13.44 17.82 13.31C18.00 13.19 18.16 13.06 18.27 12.92L18.09 12.70C18.06 12.66 18.00 12.63 17.95 12.63C17.91 12.63 17.82 12.66 17.72 12.74C17.63 12.82 17.49 12.91 17.30 13.01C17.14 13.10 16.91 13.17 16.66 13.26C16.41 13.34 16.10 13.38 15.75 13.38C15.36 13.38 15.01 13.31 14.69 13.17C14.36 13.03 14.10 12.84 13.87 12.57C13.65 12.31 13.48 11.97 13.36 11.58C13.23 11.19 13.17 10.71 13.17 10.19L13.17 10.07L18.20 10.07C18.27 10.07 18.31 10.05 18.34 10.01C18.37 9.97 18.40 9.90 18.40 9.80C18.40 9.31 18.33 8.88 18.19 8.50C18.05 8.12 17.86 7.78 17.61 7.53C17.37 7.28 17.08 7.08 16.74 6.94C16.41 6.80 16.04 6.73 15.65 6.73ZM15.67 7.24C15.99 7.24 16.27 7.29 16.53 7.41C16.80 7.52 17.02 7.67 17.21 7.88C17.39 8.09 17.54 8.33 17.64 8.62C17.74 8.92 17.79 9.25 17.79 9.63L13.20 9.63C13.24 9.27 13.33 8.93 13.45 8.64C13.58 8.34 13.75 8.09 13.96 7.88C14.17 7.67 14.42 7.52 14.70 7.41C14.98 7.29 15.30 7.24 15.67 7.24ZM31.65 12.70C31.63 12.66 31.57 12.63 31.51 12.63C31.46 12.63 31.40 12.66 31.32 12.74C31.23 12.82 31.11 12.91 30.97 13.01C30.83 13.10 30.63 13.17 30.41 13.26C30.18 13.34 29.89 13.38 29.55 13.38C29.19 13.38 28.85 13.31 28.56 13.17C28.27 13.03 28.01 12.85 27.80 12.59C27.59 12.33 27.43 12.01 27.31 11.63C27.20 11.26 27.15 10.82 27.15 10.33C27.15 9.86 27.20 9.44 27.31 9.06C27.43 8.68 27.59 8.36 27.80 8.09C28.01 7.83 28.28 7.62 28.59 7.48C28.90 7.34 29.25 7.27 29.65 7.27C30.00 7.27 30.39 7.35 30.84 7.50C30.86 7.69 30.86 7.87 30.87 8.04C30.88 8.20 30.90 8.33 30.91 8.43C30.93 8.53 30.93 8.58 30.93 8.60C30.94 8.82 31.04 8.93 31.23 8.93L31.57 8.93L31.57 7.18L31.21 7.07C30.97 7.00 30.67 6.92 30.35 6.85C30.03 6.78 29.78 6.75 29.61 6.75C29.11 6.75 28.67 6.82 28.28 7.00C27.89 7.18 27.55 7.42 27.29 7.74C27.02 8.06 26.82 8.44 26.68 8.88C26.54 9.31 26.46 9.80 26.46 10.33C26.46 10.89 26.53 11.40 26.68 11.84C26.82 12.29 27.03 12.66 27.30 12.96C27.57 13.27 27.89 13.51 28.25 13.66C28.62 13.83 29.01 13.92 29.46 13.92C29.72 13.92 29.97 13.89 30.21 13.83C30.45 13.78 30.67 13.72 30.88 13.64C31.09 13.55 31.26 13.44 31.43 13.31C31.60 13.19 31.72 13.06 31.84 12.92ZM47.26 13.29L47.18 13.29L47.08 13.29C47.04 13.29 46.97 13.27 46.87 13.27C46.77 13.27 46.65 13.26 46.52 13.26L46.52 9.37C46.52 8.96 46.48 8.60 46.38 8.27C46.28 7.95 46.14 7.67 45.95 7.45C45.75 7.22 45.51 7.06 45.22 6.93C44.93 6.80 44.59 6.75 44.21 6.75C43.69 6.75 43.23 6.86 42.81 7.10C42.41 7.34 42.04 7.66 41.72 8.05L41.72 3.64L41.05 3.64L40.04 3.64L40.04 3.91C40.04 4.06 40.14 4.14 40.32 4.16L40.39 4.16C40.42 4.16 40.46 4.17 40.50 4.17L40.71 4.17C40.81 4.17 40.92 4.19 41.05 4.19L41.05 13.26C40.89 13.26 40.75 13.29 40.64 13.29L40.40 13.29L40.32 13.29C40.14 13.30 40.04 13.38 40.04 13.54L40.04 13.82L41.05 13.82L41.72 13.82L42.73 13.82L42.73 13.54C42.73 13.38 42.63 13.30 42.45 13.29L42.38 13.29L42.27 13.29C42.22 13.29 42.15 13.27 42.06 13.27C41.96 13.27 41.85 13.26 41.72 13.26L41.72 8.60C42.03 8.19 42.38 7.87 42.77 7.63C43.16 7.39 43.58 7.28 44.04 7.28C44.66 7.28 45.12 7.46 45.42 7.83C45.71 8.20 45.86 8.71 45.86 9.37L45.86 13.82L46.52 13.82L47.53 13.82L47.53 13.54C47.53 13.38 47.45 13.30 47.26 13.29ZM56.07 13.29C56.07 13.47 56.13 13.61 56.25 13.73C56.38 13.86 56.53 13.93 56.71 13.93C56.80 13.93 56.88 13.90 56.97 13.87C57.05 13.85 57.11 13.79 57.16 13.73C57.22 13.68 57.27 13.62 57.30 13.54C57.33 13.45 57.36 13.38 57.36 13.29C57.36 13.20 57.33 13.12 57.30 13.03C57.27 12.95 57.22 12.88 57.16 12.82C57.11 12.77 57.05 12.71 56.97 12.68C56.88 12.66 56.80 12.63 56.71 12.63C56.62 12.63 56.53 12.66 56.45 12.68C56.36 12.71 56.31 12.77 56.25 12.82C56.20 12.88 56.14 12.95 56.11 13.03C56.08 13.12 56.07 13.20 56.07 13.29ZM71.61 13.29L71.51 13.29L71.29 13.29C71.19 13.29 71.08 13.27 70.97 13.27L70.97 9.28C70.97 8.89 70.92 8.55 70.83 8.23C70.73 7.91 70.59 7.64 70.41 7.42C70.22 7.20 69.99 7.03 69.71 6.92C69.43 6.79 69.10 6.73 68.73 6.73C68.22 6.73 67.77 6.83 67.37 7.01C66.96 7.20 66.58 7.48 66.22 7.84L66.33 8.05C66.37 8.13 66.44 8.18 66.54 8.18C66.61 8.18 66.71 8.12 66.81 8.02C66.91 7.92 67.05 7.84 67.21 7.73C67.38 7.62 67.56 7.52 67.80 7.42C68.04 7.32 68.32 7.28 68.66 7.28C69.20 7.28 69.62 7.45 69.90 7.80C70.18 8.15 70.31 8.64 70.31 9.28L70.31 10.01C69.52 10.02 68.85 10.09 68.29 10.21C67.73 10.32 67.27 10.47 66.91 10.65C66.54 10.84 66.29 11.06 66.12 11.31C65.95 11.56 65.87 11.83 65.87 12.12C65.87 12.45 65.93 12.73 66.02 12.95C66.14 13.17 66.28 13.36 66.44 13.50C66.61 13.64 66.82 13.75 67.05 13.82C67.27 13.89 67.49 13.93 67.73 13.93C68.01 13.93 68.28 13.90 68.52 13.85C68.75 13.79 68.96 13.71 69.17 13.61C69.38 13.51 69.58 13.38 69.78 13.23C69.96 13.08 70.14 12.91 70.34 12.73L70.43 13.62C70.46 13.75 70.56 13.82 70.70 13.82L70.71 13.82L70.97 13.82L71.89 13.82L71.89 13.54C71.89 13.38 71.79 13.30 71.61 13.29ZM70.31 12.26C70.14 12.43 69.99 12.60 69.82 12.74C69.65 12.88 69.47 13.01 69.27 13.12C69.08 13.23 68.87 13.30 68.64 13.36C68.42 13.41 68.17 13.44 67.90 13.44C67.72 13.44 67.54 13.43 67.37 13.37C67.20 13.31 67.06 13.24 66.93 13.13C66.81 13.02 66.70 12.88 66.63 12.71C66.54 12.54 66.51 12.35 66.51 12.11C66.51 11.86 66.58 11.63 66.74 11.44C66.89 11.24 67.12 11.09 67.42 10.95C67.73 10.81 68.12 10.70 68.60 10.61C69.08 10.53 69.65 10.47 70.31 10.46ZM84.71 6.80C84.53 6.76 84.35 6.73 84.14 6.73C83.59 6.73 83.13 6.89 82.75 7.21C82.38 7.53 82.08 7.98 81.86 8.54L81.80 7.07C81.80 6.99 81.77 6.93 81.75 6.90C81.72 6.87 81.66 6.86 81.58 6.86L81.23 6.86L81.23 6.86L80.22 6.86L80.22 7.13C80.22 7.31 80.32 7.36 80.49 7.38C80.57 7.38 80.65 7.38 81.23 7.41L81.23 13.26C80.65 13.29 80.57 13.29 80.49 13.29C80.32 13.30 80.22 13.36 80.22 13.54L80.22 13.82L81.23 13.82L81.89 13.82L81.89 13.82L82.89 13.82L82.89 13.54C82.89 13.36 82.80 13.30 82.63 13.29C82.54 13.29 82.46 13.29 81.89 13.26L81.89 9.30C82.10 8.68 82.38 8.20 82.71 7.88C83.05 7.56 83.48 7.39 84.01 7.39C84.15 7.39 84.28 7.41 84.39 7.42C84.50 7.43 84.62 7.45 84.69 7.48C84.77 7.50 84.81 7.53 84.87 7.55C84.92 7.56 84.97 7.57 84.99 7.57C85.08 7.57 85.12 7.53 85.13 7.46L85.22 7.00C85.06 6.92 84.90 6.85 84.71 6.80ZM95.79 13.93C96.08 13.93 96.36 13.86 96.64 13.75C96.91 13.64 97.13 13.48 97.31 13.29L97.13 12.98C97.09 12.94 97.06 12.92 97.02 12.92C96.99 12.92 96.94 12.94 96.88 12.99C96.82 13.05 96.75 13.09 96.67 13.15C96.59 13.20 96.47 13.26 96.35 13.31C96.22 13.37 96.10 13.38 95.93 13.38C95.79 13.38 95.65 13.36 95.54 13.31C95.42 13.27 95.33 13.20 95.24 13.12C95.16 13.03 95.09 12.92 95.03 12.78C94.98 12.64 94.96 12.49 94.96 12.29L94.96 7.57L97.16 7.57L97.16 7.07L94.96 7.07L94.96 4.41L94.64 4.41C94.58 4.41 94.56 4.44 94.53 4.47C94.50 4.49 94.47 4.54 94.47 4.58L94.30 7.07L93.11 7.15L93.11 7.41C93.11 7.46 93.13 7.49 93.16 7.52C93.18 7.55 93.24 7.57 93.30 7.57L94.29 7.57L94.29 12.33C94.29 12.88 94.42 13.27 94.68 13.54C94.95 13.80 95.31 13.93 95.79 13.93ZM105.83 13.29C105.83 13.47 105.88 13.61 106.01 13.73C106.13 13.86 106.29 13.93 106.47 13.93C106.55 13.93 106.64 13.90 106.72 13.87C106.81 13.85 106.86 13.79 106.92 13.73C106.97 13.68 107.03 13.62 107.06 13.54C107.09 13.45 107.11 13.38 107.11 13.29C107.11 13.20 107.09 13.12 107.06 13.03C107.03 12.95 106.97 12.88 106.92 12.82C106.86 12.77 106.81 12.71 106.72 12.68C106.64 12.66 106.55 12.63 106.47 12.63C106.37 12.63 106.29 12.66 106.20 12.68C106.12 12.71 106.06 12.77 106.01 12.82C105.95 12.88 105.90 12.95 105.87 13.03C105.84 13.12 105.83 13.20 105.83 13.29ZM120.79 12.70C120.76 12.66 120.71 12.63 120.65 12.63C120.60 12.63 120.54 12.66 120.46 12.74C120.37 12.82 120.25 12.91 120.11 13.01C119.97 13.10 119.77 13.17 119.55 13.26C119.32 13.34 119.03 13.38 118.69 13.38C118.33 13.38 117.99 13.31 117.70 13.17C117.40 13.03 117.15 12.85 116.94 12.59C116.73 12.33 116.56 12.01 116.45 11.63C116.34 11.26 116.28 10.82 116.28 10.33C116.28 9.86 116.34 9.44 116.45 9.06C116.56 8.68 116.73 8.36 116.94 8.09C117.15 7.83 117.42 7.62 117.73 7.48C118.03 7.34 118.38 7.27 118.79 7.27C119.14 7.27 119.53 7.35 119.98 7.50C119.99 7.69 119.99 7.87 120.01 8.04C120.02 8.20 120.04 8.33 120.05 8.43C120.06 8.53 120.06 8.58 120.06 8.60C120.08 8.82 120.18 8.93 120.37 8.93L120.71 8.93L120.71 7.18L120.34 7.07C120.11 7.00 119.81 6.92 119.49 6.85C119.17 6.78 118.92 6.75 118.75 6.75C118.24 6.75 117.81 6.82 117.42 7.00C117.03 7.18 116.69 7.42 116.42 7.74C116.16 8.06 115.96 8.44 115.82 8.88C115.68 9.31 115.60 9.80 115.60 10.33C115.60 10.89 115.67 11.40 115.82 11.84C115.96 12.29 116.17 12.66 116.44 12.96C116.70 13.27 117.03 13.51 117.39 13.66C117.75 13.83 118.15 13.92 118.59 13.92C118.86 13.92 119.11 13.89 119.35 13.83C119.59 13.78 119.81 13.72 120.02 13.64C120.23 13.55 120.40 13.44 120.57 13.31C120.74 13.19 120.86 13.06 120.97 12.92ZM136.00 13.29L135.93 13.29L135.81 13.29C135.77 13.29 135.70 13.27 135.60 13.27C135.51 13.27 135.39 13.26 135.27 13.26L135.27 6.85L134.60 6.86L133.59 6.86L133.59 7.13C133.59 7.28 133.69 7.36 133.87 7.38L133.94 7.38C133.97 7.38 134.01 7.39 134.05 7.39L134.26 7.39C134.36 7.39 134.47 7.41 134.60 7.41L134.60 12.08C134.29 12.49 133.92 12.81 133.53 13.05C133.14 13.27 132.72 13.40 132.27 13.40C131.66 13.40 131.19 13.20 130.90 12.84C130.61 12.46 130.45 11.96 130.45 11.30L130.45 6.85L129.78 6.86L128.77 6.86L128.77 7.13C128.77 7.28 128.87 7.36 129.05 7.38L129.12 7.38C129.15 7.38 129.19 7.39 129.23 7.39L129.44 7.39C129.54 7.39 129.65 7.41 129.78 7.41L129.78 11.30C129.78 11.70 129.84 12.07 129.93 12.39C130.03 12.71 130.17 12.99 130.37 13.22C130.56 13.44 130.79 13.62 131.08 13.75C131.38 13.87 131.71 13.93 132.10 13.93C132.62 13.93 133.10 13.80 133.52 13.57C133.94 13.33 134.32 13.01 134.64 12.60L134.69 13.64C134.69 13.76 134.78 13.82 134.90 13.82L135.27 13.82L136.28 13.82L136.28 13.54C136.28 13.38 136.18 13.30 136.00 13.29ZM146.96 13.29L146.89 13.29L146.78 13.29C146.73 13.29 146.66 13.27 146.57 13.27C146.47 13.27 146.36 13.26 146.23 13.26L146.23 3.63L145.56 3.63L144.55 3.63L144.55 3.91C144.55 4.06 144.65 4.14 144.83 4.16L144.90 4.16C144.93 4.16 144.97 4.17 145.01 4.17L145.22 4.17C145.32 4.17 145.43 4.19 145.56 4.19L145.56 13.26C145.40 13.26 145.26 13.29 145.15 13.29L144.91 13.29L144.83 13.29C144.65 13.30 144.55 13.38 144.55 13.54L144.55 13.82L145.56 13.82L146.23 13.82L147.24 13.82L147.24 13.54C147.24 13.38 147.14 13.30 146.96 13.29ZM157.68 13.93C157.98 13.93 158.26 13.86 158.54 13.75C158.80 13.64 159.03 13.48 159.21 13.29L159.03 12.98C158.98 12.94 158.96 12.92 158.91 12.92C158.89 12.92 158.83 12.94 158.77 12.99C158.72 13.05 158.65 13.09 158.56 13.15C158.48 13.20 158.37 13.26 158.24 13.31C158.12 13.37 157.99 13.38 157.82 13.38C157.68 13.38 157.54 13.36 157.43 13.31C157.32 13.27 157.22 13.20 157.14 13.12C157.05 13.03 156.98 12.92 156.93 12.78C156.87 12.64 156.86 12.49 156.86 12.29L156.86 7.57L159.05 7.57L159.05 7.07L156.86 7.07L156.86 4.41L156.53 4.41C156.48 4.41 156.45 4.44 156.42 4.47C156.39 4.49 156.37 4.54 156.37 4.58L156.20 7.07L155.01 7.15L155.01 7.41C155.01 7.46 155.02 7.49 155.05 7.52C155.08 7.55 155.13 7.57 155.19 7.57L156.18 7.57L156.18 12.33C156.18 12.88 156.31 13.27 156.58 13.54C156.84 13.80 157.21 13.93 157.68 13.93ZM174.24 13.29L174.17 13.29L174.06 13.29C174.02 13.29 173.95 13.27 173.85 13.27C173.75 13.27 173.64 13.26 173.52 13.26L173.52 6.85L172.84 6.86L171.84 6.86L171.84 7.13C171.84 7.28 171.93 7.36 172.12 7.38L172.19 7.38C172.21 7.38 172.26 7.39 172.30 7.39L172.51 7.39C172.61 7.39 172.72 7.41 172.84 7.41L172.84 12.08C172.54 12.49 172.17 12.81 171.78 13.05C171.39 13.27 170.97 13.40 170.52 13.40C169.90 13.40 169.44 13.20 169.15 12.84C168.85 12.46 168.70 11.96 168.70 11.30L168.70 6.85L168.03 6.86L167.02 6.86L167.02 7.13C167.02 7.28 167.12 7.36 167.30 7.38L167.37 7.38C167.40 7.38 167.44 7.39 167.48 7.39L167.69 7.39C167.79 7.39 167.90 7.41 168.03 7.41L168.03 11.30C168.03 11.70 168.08 12.07 168.18 12.39C168.28 12.71 168.42 12.99 168.62 13.22C168.81 13.44 169.04 13.62 169.33 13.75C169.62 13.87 169.96 13.93 170.35 13.93C170.87 13.93 171.35 13.80 171.77 13.57C172.19 13.33 172.56 13.01 172.89 12.60L172.94 13.64C172.94 13.76 173.03 13.82 173.15 13.82L173.52 13.82L174.52 13.82L174.52 13.54C174.52 13.38 174.43 13.30 174.24 13.29ZM187.33 6.80C187.15 6.76 186.97 6.73 186.76 6.73C186.21 6.73 185.75 6.89 185.37 7.21C185.00 7.53 184.70 7.98 184.48 8.54L184.42 7.07C184.42 6.99 184.39 6.93 184.37 6.90C184.34 6.87 184.28 6.86 184.20 6.86L183.85 6.86L183.85 6.86L182.84 6.86L182.84 7.13C182.84 7.31 182.94 7.36 183.11 7.38C183.19 7.38 183.27 7.38 183.85 7.41L183.85 13.26C183.27 13.29 183.19 13.29 183.11 13.29C182.94 13.30 182.84 13.36 182.84 13.54L182.84 13.82L183.85 13.82L184.51 13.82L184.51 13.82L185.51 13.82L185.51 13.54C185.51 13.36 185.42 13.30 185.25 13.29C185.16 13.29 185.08 13.29 184.51 13.26L184.51 9.30C184.72 8.68 185.00 8.20 185.33 7.88C185.67 7.56 186.10 7.39 186.63 7.39C186.77 7.39 186.90 7.41 187.01 7.42C187.12 7.43 187.24 7.45 187.31 7.48C187.39 7.50 187.43 7.53 187.49 7.55C187.54 7.56 187.59 7.57 187.61 7.57C187.70 7.57 187.74 7.53 187.75 7.46L187.84 7.00C187.68 6.92 187.52 6.85 187.33 6.80ZM198.79 6.73C198.30 6.73 197.85 6.83 197.46 7.00C197.06 7.17 196.74 7.41 196.48 7.71C196.21 8.02 196.00 8.39 195.86 8.81C195.72 9.23 195.64 9.69 195.64 10.19C195.64 10.78 195.72 11.31 195.87 11.77C196.03 12.24 196.24 12.61 196.52 12.94C196.80 13.26 197.13 13.50 197.53 13.66C197.92 13.83 198.35 13.90 198.83 13.90C199.09 13.90 199.36 13.89 199.61 13.83C199.86 13.78 200.12 13.71 200.34 13.62C200.56 13.54 200.77 13.44 200.96 13.31C201.14 13.19 201.29 13.06 201.40 12.92L201.22 12.70C201.19 12.66 201.14 12.63 201.08 12.63C201.04 12.63 200.96 12.66 200.86 12.74C200.76 12.82 200.62 12.91 200.44 13.01C200.27 13.10 200.05 13.17 199.79 13.26C199.54 13.34 199.23 13.38 198.88 13.38C198.49 13.38 198.14 13.31 197.82 13.17C197.50 13.03 197.23 12.84 197.01 12.57C196.78 12.31 196.62 11.97 196.49 11.58C196.36 11.19 196.31 10.71 196.31 10.19L196.31 10.07L201.33 10.07C201.40 10.07 201.45 10.05 201.47 10.01C201.50 9.97 201.53 9.90 201.53 9.80C201.53 9.31 201.46 8.88 201.32 8.50C201.18 8.12 201.00 7.78 200.75 7.53C200.51 7.28 200.21 7.08 199.88 6.94C199.54 6.80 199.18 6.73 198.79 6.73ZM198.80 7.24C199.12 7.24 199.40 7.29 199.67 7.41C199.93 7.52 200.16 7.67 200.34 7.88C200.52 8.09 200.68 8.33 200.77 8.62C200.87 8.92 200.93 9.25 200.93 9.63L196.34 9.63C196.38 9.27 196.46 8.93 196.59 8.64C196.71 8.34 196.88 8.09 197.09 7.88C197.30 7.67 197.55 7.52 197.83 7.41C198.11 7.29 198.44 7.24 198.80 7.24Z"></path></g></svg>