<svg data-v-423bf9ae="" xmlns="http://www.w3.org/2000/svg" viewBox="0 0 330.0306354481037 60" class="font"><!----><!----><!----><g data-v-423bf9ae="" id="9bcabe29-becd-4663-b32d-faa0b4a27cb8" fill="black" transform="matrix(6.12870278179688,0,0,6.12870278179688,-2.512773498834804,-27.02757880939557)"><path d="M3.04 6.41L3.04 6.41Q2.86 6.41 2.73 6.27L2.73 6.27L2.73 6.27Q2.60 6.13 2.60 5.92L2.60 5.92L2.60 5.92Q2.60 5.63 2.83 5.36L2.83 5.36L2.83 5.36Q3.07 5.08 3.35 5.08L3.35 5.08L3.35 5.08Q3.56 5.08 3.70 5.24L3.70 5.24L3.70 5.24Q3.84 5.39 3.84 5.60L3.84 5.60L3.84 5.60Q3.84 5.88 3.58 6.15L3.58 6.15L3.58 6.15Q3.33 6.41 3.04 6.41L3.04 6.41ZM1.81 14.15L1.81 14.15Q1.46 14.15 1.20 13.94L1.20 13.94L1.20 13.94Q0.94 13.72 0.94 13.29L0.94 13.29L0.94 13.29Q0.94 12.92 1.11 12.39L1.11 12.39L1.11 12.39Q1.27 11.86 1.61 10.95L1.61 10.95L1.61 10.95Q1.65 10.82 1.83 10.34L1.83 10.34L1.83 10.34Q2.00 9.86 2.09 9.54L2.09 9.54L2.09 9.54Q2.17 9.23 2.17 9.04L2.17 9.04L2.17 9.04Q2.17 8.88 2.10 8.76L2.10 8.76L2.10 8.76Q2.03 8.65 1.89 8.65L1.89 8.65L1.89 8.65Q1.58 8.65 1.23 9.11L1.23 9.11L1.23 9.11Q0.88 9.58 0.57 10.35L0.57 10.35L0.41 10.30L0.41 10.30Q0.83 9.35 1.26 8.79L1.26 8.79L1.26 8.79Q1.69 8.23 2.30 8.23L2.30 8.23L2.30 8.23Q2.66 8.23 2.88 8.44L2.88 8.44L2.88 8.44Q3.11 8.64 3.11 9.04L3.11 9.04L3.11 9.04Q3.11 9.39 2.95 9.92L2.95 9.92L2.95 9.92Q2.79 10.44 2.49 11.23L2.49 11.23L2.49 11.23Q2.18 12.07 2.04 12.51L2.04 12.51L2.04 12.51Q1.90 12.95 1.90 13.26L1.90 13.26L1.90 13.26Q1.90 13.71 2.21 13.71L2.21 13.71L2.21 13.71Q2.53 13.71 2.87 13.24L2.87 13.24L2.87 13.24Q3.21 12.77 3.51 12.03L3.51 12.03L3.67 12.07L3.67 12.07Q3.26 13.05 2.84 13.60L2.84 13.60L2.84 13.60Q2.42 14.15 1.81 14.15L1.81 14.15ZM7.42 4.75L5.56 13.03L5.56 13.03Q5.52 13.20 5.52 13.31L5.52 13.31L5.52 13.31Q5.52 13.71 5.87 13.71L5.87 13.71L5.87 13.71Q6.47 13.71 7.17 12.03L7.17 12.03L7.32 12.07L7.32 12.07Q6.89 13.06 6.48 13.61L6.48 13.61L6.48 13.61Q6.08 14.15 5.46 14.15L5.46 14.15L5.46 14.15Q5.11 14.15 4.86 13.97L4.86 13.97L4.86 13.97Q4.61 13.78 4.61 13.34L4.61 13.34L4.61 13.34Q4.61 13.19 4.65 12.98L4.65 12.98L6.43 5.19L6.43 5.19Q6.44 5.14 6.44 5.05L6.44 5.05L6.44 5.05Q6.44 4.80 6.24 4.75L6.24 4.75L6.24 4.75Q6.03 4.70 5.66 4.70L5.66 4.70L5.66 4.70Q5.47 4.70 5.47 4.56L5.47 4.56L5.47 4.56Q5.47 4.48 5.52 4.45L5.52 4.45L5.52 4.45Q5.56 4.41 5.66 4.41L5.66 4.41L7.20 4.41L7.20 4.41Q7.43 4.41 7.43 4.63L7.43 4.63L7.43 4.63Q7.43 4.70 7.42 4.75L7.42 4.75ZM10.99 4.75L9.13 13.03L9.13 13.03Q9.09 13.20 9.09 13.31L9.09 13.31L9.09 13.31Q9.09 13.71 9.44 13.71L9.44 13.71L9.44 13.71Q10.04 13.71 10.74 12.03L10.74 12.03L10.89 12.07L10.89 12.07Q10.46 13.06 10.05 13.61L10.05 13.61L10.05 13.61Q9.65 14.15 9.03 14.15L9.03 14.15L9.03 14.15Q8.68 14.15 8.43 13.97L8.43 13.97L8.43 13.97Q8.18 13.78 8.18 13.34L8.18 13.34L8.18 13.34Q8.18 13.19 8.22 12.98L8.22 12.98L10.00 5.19L10.00 5.19Q10.01 5.14 10.01 5.05L10.01 5.05L10.01 5.05Q10.01 4.80 9.81 4.75L9.81 4.75L9.81 4.75Q9.60 4.70 9.23 4.70L9.23 4.70L9.23 4.70Q9.04 4.70 9.04 4.56L9.04 4.56L9.04 4.56Q9.04 4.48 9.09 4.45L9.09 4.45L9.09 4.45Q9.13 4.41 9.23 4.41L9.23 4.41L10.77 4.41L10.77 4.41Q11.00 4.41 11.00 4.63L11.00 4.63L11.00 4.63Q11.00 4.70 10.99 4.75L10.99 4.75ZM13.20 14.20L13.20 14.20Q12.82 14.20 12.43 14.01L12.43 14.01L12.43 14.01Q12.04 13.82 11.77 13.40L11.77 13.40L11.77 13.40Q11.49 12.98 11.49 12.31L11.49 12.31L11.49 12.31Q11.49 11.45 11.92 10.49L11.92 10.49L11.92 10.49Q12.35 9.53 13.04 8.88L13.04 8.88L13.04 8.88Q13.73 8.23 14.48 8.23L14.48 8.23L14.48 8.23Q14.87 8.23 15.19 8.45L15.19 8.45L15.19 8.45Q15.51 8.67 15.69 8.95L15.69 8.95L15.69 8.95Q15.74 9.00 15.79 9.00L15.79 9.00L15.79 9.00Q15.89 9.00 15.92 8.90L15.92 8.90L16.00 8.61L16.00 8.61Q16.04 8.43 16.23 8.43L16.23 8.43L16.67 8.43L16.67 8.43Q16.90 8.43 16.86 8.67L16.86 8.67L16.86 8.67Q15.82 12.84 15.82 13.34L15.82 13.34L15.82 13.34Q15.82 13.51 15.91 13.61L15.91 13.61L15.91 13.61Q16.00 13.71 16.14 13.71L16.14 13.71L16.14 13.71Q16.44 13.71 16.77 13.25L16.77 13.25L16.77 13.25Q17.11 12.80 17.43 12.03L17.43 12.03L17.58 12.07L17.58 12.07Q17.14 13.13 16.72 13.64L16.72 13.64L16.72 13.64Q16.31 14.15 15.65 14.15L15.65 14.15L15.65 14.15Q15.25 14.15 15.11 13.96L15.11 13.96L15.11 13.96Q14.97 13.76 14.88 13.37L14.88 13.37L14.88 13.37Q14.87 13.22 14.77 13.33L14.77 13.33L14.77 13.33Q14.35 13.75 13.99 13.97L13.99 13.97L13.99 13.97Q13.64 14.20 13.20 14.20L13.20 14.20ZM13.30 13.83L13.30 13.83Q13.97 13.83 14.39 13.38L14.39 13.38L14.39 13.38Q14.81 12.94 15.09 12.13L15.09 12.13L15.09 12.13Q15.37 11.33 15.68 9.90L15.68 9.90L15.68 9.90Q15.68 9.41 15.45 8.97L15.45 8.97L15.45 8.97Q15.22 8.54 14.73 8.54L14.73 8.54L14.73 8.54Q14.07 8.54 13.55 9.22L13.55 9.22L13.55 9.22Q13.02 9.90 12.73 10.89L12.73 10.89L12.73 10.89Q12.43 11.87 12.43 12.70L12.43 12.70L12.43 12.70Q12.43 13.26 12.62 13.55L12.62 13.55L12.62 13.55Q12.81 13.83 13.30 13.83L13.30 13.83ZM24.26 6.41L24.26 6.41Q24.08 6.41 23.95 6.27L23.95 6.27L23.95 6.27Q23.83 6.13 23.83 5.92L23.83 5.92L23.83 5.92Q23.83 5.63 24.06 5.36L24.06 5.36L24.06 5.36Q24.29 5.08 24.57 5.08L24.57 5.08L24.57 5.08Q24.78 5.08 24.92 5.24L24.92 5.24L24.92 5.24Q25.06 5.39 25.06 5.60L25.06 5.60L25.06 5.60Q25.06 5.88 24.81 6.15L24.81 6.15L24.81 6.15Q24.56 6.41 24.26 6.41L24.26 6.41ZM23.03 14.15L23.03 14.15Q22.68 14.15 22.42 13.94L22.42 13.94L22.42 13.94Q22.16 13.72 22.16 13.29L22.16 13.29L22.16 13.29Q22.16 12.92 22.33 12.39L22.33 12.39L22.33 12.39Q22.50 11.86 22.83 10.95L22.83 10.95L22.83 10.95Q22.88 10.82 23.05 10.34L23.05 10.34L23.05 10.34Q23.23 9.86 23.31 9.54L23.31 9.54L23.31 9.54Q23.39 9.23 23.39 9.04L23.39 9.04L23.39 9.04Q23.39 8.88 23.32 8.76L23.32 8.76L23.32 8.76Q23.25 8.65 23.11 8.65L23.11 8.65L23.11 8.65Q22.81 8.65 22.46 9.11L22.46 9.11L22.46 9.11Q22.11 9.58 21.80 10.35L21.80 10.35L21.63 10.30L21.63 10.30Q22.05 9.35 22.48 8.79L22.48 8.79L22.48 8.79Q22.92 8.23 23.52 8.23L23.52 8.23L23.52 8.23Q23.88 8.23 24.11 8.44L24.11 8.44L24.11 8.44Q24.33 8.64 24.33 9.04L24.33 9.04L24.33 9.04Q24.33 9.39 24.17 9.92L24.17 9.92L24.17 9.92Q24.01 10.44 23.72 11.23L23.72 11.23L23.72 11.23Q23.41 12.07 23.27 12.51L23.27 12.51L23.27 12.51Q23.13 12.95 23.13 13.26L23.13 13.26L23.13 13.26Q23.13 13.71 23.44 13.71L23.44 13.71L23.44 13.71Q23.76 13.71 24.09 13.24L24.09 13.24L24.09 13.24Q24.43 12.77 24.74 12.03L24.74 12.03L24.89 12.07L24.89 12.07Q24.49 13.05 24.07 13.60L24.07 13.60L24.07 13.60Q23.65 14.15 23.03 14.15L23.03 14.15ZM27.05 14.14L27.05 14.14Q26.45 14.14 25.96 13.83L25.96 13.83L25.96 13.83Q25.47 13.51 25.47 13.02L25.47 13.02L25.47 13.02Q25.47 12.80 25.58 12.68L25.58 12.68L25.58 12.68Q25.69 12.56 25.87 12.56L25.87 12.56L25.87 12.56Q26.04 12.56 26.16 12.65L26.16 12.65L26.16 12.65Q26.28 12.74 26.28 12.92L26.28 12.92L26.28 12.92Q26.28 13.02 26.21 13.17L26.21 13.17L26.21 13.17Q26.15 13.33 26.15 13.41L26.15 13.41L26.15 13.41Q26.15 13.64 26.42 13.74L26.42 13.74L26.42 13.74Q26.70 13.85 27.05 13.85L27.05 13.85L27.05 13.85Q27.66 13.85 28.17 13.51L28.17 13.51L28.17 13.51Q28.67 13.17 28.67 12.54L28.67 12.54L28.67 12.54Q28.67 12.07 28.38 11.85L28.38 11.85L28.38 11.85Q28.10 11.63 27.50 11.42L27.50 11.42L27.50 11.42Q27.08 11.28 26.82 11.16L26.82 11.16L26.82 11.16Q26.56 11.03 26.38 10.78L26.38 10.78L26.38 10.78Q26.21 10.53 26.21 10.14L26.21 10.14L26.21 10.14Q26.21 9.62 26.50 9.18L26.50 9.18L26.50 9.18Q26.80 8.75 27.26 8.49L27.26 8.49L27.26 8.49Q27.72 8.23 28.21 8.23L28.21 8.23L28.21 8.23Q28.77 8.23 29.22 8.55L29.22 8.55L29.22 8.55Q29.68 8.88 29.68 9.35L29.68 9.35L29.68 9.35Q29.68 9.59 29.57 9.71L29.57 9.71L29.57 9.71Q29.46 9.83 29.27 9.83L29.27 9.83L29.27 9.83Q29.11 9.83 28.99 9.74L28.99 9.74L28.99 9.74Q28.87 9.66 28.87 9.49L28.87 9.49L28.87 9.49Q28.87 9.39 28.93 9.24L28.93 9.24L28.93 9.24Q28.99 9.09 28.99 9.00L28.99 9.00L28.99 9.00Q28.99 8.76 28.74 8.63L28.74 8.63L28.74 8.63Q28.49 8.50 28.14 8.50L28.14 8.50L28.14 8.50Q27.58 8.50 27.23 8.84L27.23 8.84L27.23 8.84Q26.88 9.18 26.88 9.62L26.88 9.62L26.88 9.62Q26.88 10.00 27.14 10.17L27.14 10.17L27.14 10.17Q27.40 10.35 27.93 10.53L27.93 10.53L27.93 10.53Q28.38 10.68 28.66 10.82L28.66 10.82L28.66 10.82Q28.94 10.96 29.13 11.25L29.13 11.25L29.13 11.25Q29.33 11.54 29.33 12.00L29.33 12.00L29.33 12.00Q29.33 12.61 28.98 13.10L28.98 13.10L28.98 13.10Q28.63 13.59 28.11 13.87L28.11 13.87L28.11 13.87Q27.58 14.14 27.05 14.14L27.05 14.14ZM33.45 4.75L31.58 13.03L31.58 13.03Q31.54 13.20 31.54 13.31L31.54 13.31L31.54 13.31Q31.54 13.71 31.89 13.71L31.89 13.71L31.89 13.71Q32.49 13.71 33.19 12.03L33.19 12.03L33.35 12.07L33.35 12.07Q32.91 13.06 32.51 13.61L32.51 13.61L32.51 13.61Q32.10 14.15 31.49 14.15L31.49 14.15L31.49 14.15Q31.14 14.15 30.88 13.97L30.88 13.97L30.88 13.97Q30.63 13.78 30.63 13.34L30.63 13.34L30.63 13.34Q30.63 13.19 30.67 12.98L30.67 12.98L32.45 5.19L32.45 5.19Q32.47 5.14 32.47 5.05L32.47 5.05L32.47 5.05Q32.47 4.80 32.26 4.75L32.26 4.75L32.26 4.75Q32.06 4.70 31.68 4.70L31.68 4.70L31.68 4.70Q31.50 4.70 31.50 4.56L31.50 4.56L31.50 4.56Q31.50 4.48 31.54 4.45L31.54 4.45L31.54 4.45Q31.58 4.41 31.68 4.41L31.68 4.41L33.22 4.41L33.22 4.41Q33.46 4.41 33.46 4.63L33.46 4.63L33.46 4.63Q33.46 4.70 33.45 4.75L33.45 4.75ZM35.66 14.20L35.66 14.20Q35.28 14.20 34.89 14.01L34.89 14.01L34.89 14.01Q34.50 13.82 34.22 13.40L34.22 13.40L34.22 13.40Q33.95 12.98 33.95 12.31L33.95 12.31L33.95 12.31Q33.95 11.45 34.38 10.49L34.38 10.49L34.38 10.49Q34.80 9.53 35.50 8.88L35.50 8.88L35.50 8.88Q36.19 8.23 36.93 8.23L36.93 8.23L36.93 8.23Q37.32 8.23 37.65 8.45L37.65 8.45L37.65 8.45Q37.97 8.67 38.15 8.95L38.15 8.95L38.15 8.95Q38.19 9.00 38.25 9.00L38.25 9.00L38.25 9.00Q38.35 9.00 38.37 8.90L38.37 8.90L38.46 8.61L38.46 8.61Q38.50 8.43 38.68 8.43L38.68 8.43L39.13 8.43L39.13 8.43Q39.35 8.43 39.31 8.67L39.31 8.67L39.31 8.67Q38.28 12.84 38.28 13.34L38.28 13.34L38.28 13.34Q38.28 13.51 38.37 13.61L38.37 13.61L38.37 13.61Q38.46 13.71 38.60 13.71L38.60 13.71L38.60 13.71Q38.89 13.71 39.23 13.25L39.23 13.25L39.23 13.25Q39.56 12.80 39.89 12.03L39.89 12.03L40.04 12.07L40.04 12.07Q39.59 13.13 39.18 13.64L39.18 13.64L39.18 13.64Q38.77 14.15 38.11 14.15L38.11 14.15L38.11 14.15Q37.70 14.15 37.56 13.96L37.56 13.96L37.56 13.96Q37.42 13.76 37.34 13.37L37.34 13.37L37.34 13.37Q37.32 13.22 37.23 13.33L37.23 13.33L37.23 13.33Q36.81 13.75 36.45 13.97L36.45 13.97L36.45 13.97Q36.09 14.20 35.66 14.20L35.66 14.20ZM35.76 13.83L35.76 13.83Q36.43 13.83 36.85 13.38L36.85 13.38L36.85 13.38Q37.27 12.94 37.55 12.13L37.55 12.13L37.55 12.13Q37.83 11.33 38.14 9.90L38.14 9.90L38.14 9.90Q38.14 9.41 37.91 8.97L37.91 8.97L37.91 8.97Q37.67 8.54 37.18 8.54L37.18 8.54L37.18 8.54Q36.53 8.54 36.00 9.22L36.00 9.22L36.00 9.22Q35.48 9.90 35.18 10.89L35.18 10.89L35.18 10.89Q34.89 11.87 34.89 12.70L34.89 12.70L34.89 12.70Q34.89 13.26 35.08 13.55L35.08 13.55L35.08 13.55Q35.27 13.83 35.76 13.83L35.76 13.83ZM45.37 14.15L45.37 14.15Q45.01 14.15 44.77 13.94L44.77 13.94L44.77 13.94Q44.52 13.72 44.52 13.19L44.52 13.19L44.52 13.19Q44.52 12.78 44.64 12.31L44.64 12.31L44.64 12.31Q44.76 11.84 45.01 11.09L45.01 11.09L45.01 11.09Q45.21 10.49 45.31 10.10L45.31 10.10L45.31 10.10Q45.42 9.72 45.42 9.44L45.42 9.44L45.42 9.44Q45.42 8.83 44.84 8.83L44.84 8.83L44.84 8.83Q44.28 8.83 43.90 9.35L43.90 9.35L43.90 9.35Q43.51 9.87 43.25 10.67L43.25 10.67L43.25 10.67Q42.99 11.47 42.62 12.98L42.62 12.98L42.41 13.83L42.41 13.83Q42.36 14.01 42.18 14.01L42.18 14.01L41.62 14.01L41.62 14.01Q41.51 14.01 41.46 13.94L41.46 13.94L41.46 13.94Q41.41 13.87 41.44 13.78L41.44 13.78L41.44 13.78Q41.54 13.36 42 11.51L42 11.51L42 11.51Q42.25 10.54 42.38 9.98L42.38 9.98L42.38 9.98Q42.50 9.41 42.50 9.09L42.50 9.09L42.50 9.09Q42.50 8.64 42.22 8.64L42.22 8.64L42.22 8.64Q41.93 8.64 41.57 9.11L41.57 9.11L41.57 9.11Q41.20 9.58 40.91 10.32L40.91 10.32L40.74 10.28L40.74 10.28Q41.15 9.34 41.57 8.79L41.57 8.79L41.57 8.79Q42 8.23 42.63 8.23L42.63 8.23L42.63 8.23Q43.09 8.23 43.25 8.45L43.25 8.45L43.25 8.45Q43.41 8.67 43.41 9.00L43.41 9.00L43.40 9.34L43.40 9.34Q43.40 9.46 43.44 9.46L43.44 9.46L43.44 9.46Q43.47 9.46 43.53 9.41L43.53 9.41L43.53 9.41Q43.58 9.34 43.83 9.02L43.83 9.02L43.83 9.02Q44.07 8.71 44.50 8.47L44.50 8.47L44.50 8.47Q44.93 8.23 45.47 8.23L45.47 8.23L45.47 8.23Q46.45 8.23 46.45 9.10L46.45 9.10L46.45 9.10Q46.45 9.44 46.34 9.86L46.34 9.86L46.34 9.86Q46.23 10.29 46.02 10.95L46.02 10.95L46.02 10.95Q45.78 11.68 45.65 12.19L45.65 12.19L45.65 12.19Q45.51 12.71 45.51 13.16L45.51 13.16L45.51 13.16Q45.51 13.45 45.58 13.58L45.58 13.58L45.58 13.58Q45.65 13.71 45.81 13.71L45.81 13.71L45.81 13.71Q46.40 13.71 47.10 12.03L47.10 12.03L47.25 12.07L47.25 12.07Q46.82 13.09 46.40 13.62L46.40 13.62L46.40 13.62Q45.99 14.15 45.37 14.15L45.37 14.15ZM49.66 14.20L49.66 14.20Q49.28 14.20 48.89 14.01L48.89 14.01L48.89 14.01Q48.50 13.82 48.22 13.40L48.22 13.40L48.22 13.40Q47.95 12.98 47.95 12.31L47.95 12.31L47.95 12.31Q47.95 11.45 48.38 10.49L48.38 10.49L48.38 10.49Q48.80 9.53 49.50 8.88L49.50 8.88L49.50 8.88Q50.19 8.23 50.93 8.23L50.93 8.23L50.93 8.23Q51.32 8.23 51.65 8.46L51.65 8.46L51.65 8.46Q51.98 8.69 52.18 8.99L52.18 8.99L52.23 9.02L52.23 9.02Q52.36 9.02 52.37 8.90L52.37 8.90L52.67 7.77L52.81 7.13L52.81 7.13Q53.17 5.49 53.26 5.19L53.26 5.19L53.26 5.19Q53.27 5.15 53.27 5.07L53.27 5.07L53.27 5.07Q53.27 4.82 53.07 4.76L53.07 4.76L53.07 4.76Q52.88 4.70 52.49 4.70L52.49 4.70L52.49 4.70Q52.29 4.70 52.29 4.56L52.29 4.56L52.29 4.56Q52.29 4.48 52.33 4.45L52.33 4.45L52.33 4.45Q52.37 4.41 52.49 4.41L52.49 4.41L54.03 4.41L54.03 4.41Q54.26 4.41 54.26 4.63L54.26 4.63L54.26 4.63Q54.26 4.70 54.25 4.75L54.25 4.75L53.62 7.41L53.28 8.82L53.28 8.82Q52.28 12.82 52.28 13.34L52.28 13.34L52.28 13.34Q52.28 13.51 52.37 13.61L52.37 13.61L52.37 13.61Q52.46 13.71 52.60 13.71L52.60 13.71L52.60 13.71Q52.89 13.71 53.23 13.25L53.23 13.25L53.23 13.25Q53.56 12.80 53.89 12.03L53.89 12.03L54.04 12.07L54.04 12.07Q53.59 13.13 53.18 13.64L53.18 13.64L53.18 13.64Q52.77 14.15 52.11 14.15L52.11 14.15L52.11 14.15Q51.70 14.15 51.56 13.96L51.56 13.96L51.56 13.96Q51.42 13.76 51.34 13.37L51.34 13.37L51.34 13.37Q51.32 13.22 51.23 13.33L51.23 13.33L51.23 13.33Q50.81 13.75 50.45 13.97L50.45 13.97L50.45 13.97Q50.09 14.20 49.66 14.20L49.66 14.20ZM49.76 13.83L49.76 13.83Q50.43 13.83 50.85 13.38L50.85 13.38L50.85 13.38Q51.27 12.94 51.55 12.13L51.55 12.13L51.55 12.13Q51.83 11.33 52.14 9.90L52.14 9.90L52.14 9.90Q52.14 9.41 51.91 8.97L51.91 8.97L51.91 8.97Q51.67 8.54 51.18 8.54L51.18 8.54L51.18 8.54Q50.53 8.54 50.00 9.22L50.00 9.22L50.00 9.22Q49.48 9.90 49.18 10.89L49.18 10.89L49.18 10.89Q48.89 11.87 48.89 12.70L48.89 12.70L48.89 12.70Q48.89 13.26 49.08 13.55L49.08 13.55L49.08 13.55Q49.27 13.83 49.76 13.83L49.76 13.83Z"></path></g><!----><!----></svg>